<?xml version="1.0" encoding="utf-8"?>
<!-- Generator: Adobe Illustrator 16.0.0, SVG Export Plug-In . SVG Version: 6.00 Build 0)  -->
<!DOCTYPE svg PUBLIC "-//W3C//DTD SVG 1.1//EN" "http://www.w3.org/Graphics/SVG/1.1/DTD/svg11.dtd">
<svg version="1.1" id="Layer_1" xmlns="http://www.w3.org/2000/svg" xmlns:xlink="http://www.w3.org/1999/xlink" x="0px" y="0px"
	 width="50px" height="50px" viewBox="25 25 50 50" enable-background="new 25 25 50 50" xml:space="preserve">
<g>
	<path fill="#CCB671" d="M75,34.167c0,1.841-1.492,3.333-3.334,3.333H28.333C26.493,37.5,25,36.007,25,34.167l0,0
		c0-1.841,1.493-3.333,3.333-3.333h43.333C73.508,30.833,75,32.326,75,34.167L75,34.167z"/>
	<path fill="#CCB671" d="M75,50c0,1.841-1.492,3.333-3.334,3.333H28.334C26.492,53.333,25,51.841,25,50l0,0
		c0-1.841,1.492-3.333,3.334-3.333h43.332C73.508,46.667,75,48.159,75,50L75,50z"/>
	<path fill="#CCB671" d="M75,65.833c0,1.842-1.492,3.334-3.334,3.334H28.334c-1.842,0-3.334-1.492-3.334-3.334l0,0
		c0-1.84,1.492-3.333,3.334-3.333h43.332C73.508,62.5,75,63.993,75,65.833L75,65.833z"/>
</g>
</svg>
